<svg display="none" xmlns="http://www.w3.org/2000/svg">

    <symbol id="menu-icon" viewBox="0 0 36 36">
        <path d="M4 6h16v2H4zm0 5h16v2H4zm0 5h16v2H4z"></path>
    </symbol>

    <symbol id="settings-icon" viewBox="0 0 489.802 489.802">
        <g>
            <path d="M20.701,281.901l32.1,0.2c4.8,24.7,14.3,48.7,28.7,70.5l-22.8,22.6c-8.2,8.1-8.2,21.2-0.2,29.4l24.6,24.9
		c8.1,8.2,21.2,8.2,29.4,0.2l22.8-22.6c21.6,14.6,45.5,24.5,70.2,29.5l-0.2,32.1c-0.1,11.5,9.2,20.8,20.7,20.9l35,0.2
		c11.5,0.1,20.8-9.2,20.9-20.7l0.2-32.1c24.7-4.8,48.7-14.3,70.5-28.7l22.6,22.8c8.1,8.2,21.2,8.2,29.4,0.2l24.9-24.6
		c8.2-8.1,8.2-21.2,0.2-29.4l-22.6-22.8c14.6-21.6,24.5-45.5,29.5-70.2l32.1,0.2c11.5,0.1,20.8-9.2,20.9-20.7l0.2-35
		c0.1-11.5-9.2-20.8-20.7-20.9l-32.1-0.2c-4.8-24.7-14.3-48.7-28.7-70.5l22.8-22.6c8.2-8.1,8.2-21.2,0.2-29.4l-24.6-24.9
		c-8.1-8.2-21.2-8.2-29.4-0.2l-22.8,22.6c-21.6-14.6-45.5-24.5-70.2-29.5l0.2-32.1c0.1-11.5-9.2-20.8-20.7-20.9l-35-0.2
		c-11.5-0.1-20.8,9.2-20.9,20.7l-0.3,32.1c-24.8,4.8-48.8,14.3-70.5,28.7l-22.6-22.8c-8.1-8.2-21.2-8.2-29.4-0.2l-24.8,24.6
		c-8.2,8.1-8.2,21.2-0.2,29.4l22.6,22.8c-14.6,21.6-24.5,45.5-29.5,70.2l-32.1-0.2c-11.5-0.1-20.8,9.2-20.9,20.7l-0.2,35
		C-0.099,272.401,9.201,281.801,20.701,281.901z M179.301,178.601c36.6-36.2,95.5-35.9,131.7,0.7s35.9,95.5-0.7,131.7
		s-95.5,35.9-131.7-0.7S142.701,214.801,179.301,178.601z"/>
        </g>
    </symbol>

    <symbol id="tasks-icon" viewBox="0 0 36 36">
        <path class="clr-i-solid clr-i-solid-path-1" d="M29.29,4.95h-7.2a4.31,4.31,0,0,0-8.17,0H7A1.75,1.75,0,0,0,5,6.64V32.26a1.7,1.7,0,0,0,1.71,1.69H29.29A1.7,1.7,0,0,0,31,32.26V6.64A1.7,1.7,0,0,0,29.29,4.95Zm-18,3a1,1,0,0,1,1-1h3.44V6.32a2.31,2.31,0,0,1,4.63,0V7h3.44a1,1,0,0,1,1,1V9.8H11.25Zm14.52,9.23-9.12,9.12-5.24-5.24a1.4,1.4,0,0,1,2-2l3.26,3.26,7.14-7.14a1.4,1.4,0,1,1,2,2Z"></path>
        <rect x="0" y="0" width="36" height="36" fill-opacity="0"/>
    </symbol>

    <symbol id="contacts-icon" viewBox="0 0 24 24">
        <g>
            <path fill="none" d="M0 0h24v24H0z"/>
            <path d="M2 22a8 8 0 1 1 16 0H2zm8-9c-3.315 0-6-2.685-6-6s2.685-6 6-6 6 2.685 6 6-2.685 6-6 6zm10 4h4v2h-4v-2zm-3-5h7v2h-7v-2zm2-5h5v2h-5V7z"/>
        </g>
    </symbol>

    <symbol id="dashboard-icon" viewBox="0 0 211.618 211.618">
        <path d="M204.118,202.309H7.5c-4.142,0-7.5-3.357-7.5-7.5v-178c0-4.143,3.358-7.5,7.5-7.5s7.5,3.357,7.5,7.5v170.5h189.118
	c4.142,0,7.5,3.357,7.5,7.5S208.26,202.309,204.118,202.309z M188.854,93.754c-1.932-1.413-4.424-1.819-6.703-1.092l-47.875,15.254
	l-16.317-47.958c-0.74-2.176-2.437-3.892-4.604-4.656c-2.166-0.767-4.565-0.495-6.507,0.735L78.768,73.809L43.2,28.261
	c-1.971-2.523-5.325-3.519-8.352-2.476c-3.027,1.042-5.059,3.891-5.059,7.092v133.863c0,4.143,3.358,7.5,7.5,7.5h147.139
	c4.142,0,7.5-3.357,7.5-7.5V99.809C191.928,97.416,190.786,95.167,188.854,93.754z"/>
    </symbol>



    <symbol id="kanban-icon" viewBox="0 0 52 52">
        <path d="M32,17.5c0-0.8-0.7-1.5-1.5-1.5h-9c-0.8,0-1.5,0.7-1.5,1.5v27c0,0.8,0.7,1.5,1.5,1.5h9
	c0.8,0,1.5-0.7,1.5-1.5V17.5z"/>
        <path d="M14,17.5c0-0.8-0.7-1.5-1.5-1.5h-9C2.7,16,2,16.7,2,17.5v31C2,49.3,2.7,50,3.5,50h9c0.8,0,1.5-0.7,1.5-1.5
	V17.5z"/>
        <path d="M50,17.5c0-0.8-0.7-1.5-1.5-1.5h-9c-0.8,0-1.5,0.7-1.5,1.5v23c0,0.8,0.7,1.5,1.5,1.5h9
	c0.8,0,1.5-0.7,1.5-1.5V17.5z"/>
        <path d="M50,3.5C50,2.7,49.3,2,48.5,2h-45C2.7,2,2,2.7,2,3.5v5C2,9.3,2.7,10,3.5,10h45c0.8,0,1.5-0.7,1.5-1.5V3.5z"
        />
    </symbol>

    <symbol id="rows-icon" viewBox="0 0 248.862 248.863">
        <g>
            <g>
                <path d="M31.87,63.729h185.125c17.576,0,31.861-14.292,31.861-31.864C248.856,14.31,234.571,0,216.995,0H31.87
			C14.297,0,0.006,14.303,0.006,31.865C0.012,49.438,14.297,63.729,31.87,63.729z M27.006,15.606h32.522v32.522H27.006V15.606z"/>
                <path d="M216.995,185.127H31.87c-17.573,0-31.864,14.292-31.864,31.868c0,17.552,14.292,31.867,31.864,31.867h185.125
			c17.576,0,31.861-14.304,31.861-31.867C248.856,199.431,234.565,185.127,216.995,185.127z M59.528,229.329H27.006v-32.521h32.522
			V229.329z"/>
                <path d="M216.995,92.573H31.87c-17.573,0-31.864,14.295-31.864,31.858c0,17.57,14.292,31.868,31.864,31.868h185.125
			c17.576,0,31.861-14.298,31.861-31.868C248.856,106.868,234.565,92.573,216.995,92.573z M59.528,140.686H27.006v-32.51h32.522
			V140.686z"/>
            </g>
        </g>
    </symbol>

</svg>
